<svg xmlns="http://www.w3.org/2000/svg" width="54" height="58" fill="none" viewBox="0 0 54 58">
  <path fill="#B81414" fill-opacity=".5" stroke="#191919" d="M12.565 24.564 1.13 41.452a.865.865 0 0 0 .642 1.316l22.562 2.39-11.77-20.594ZM1.805 35.438l8.154-13.255-8.302-4.98a.433.433 0 0 0-.657.37v17.638c0 .437.574.6.804.227Zm1.172 11.719 21.06 9.495a.866.866 0 0 0 1.23-.786v-7.114l-22.05-2.416c-.484-.055-.677.606-.24.82Zm8.799-27.927 8.659-15.485c.47-.765-.39-1.652-1.168-1.207L2.93 13.221a.434.434 0 0 0 .015.735l8.83 5.274ZM27 20.333h11.83L28.478 2.092A1.722 1.722 0 0 0 27 1.266a1.72 1.72 0 0 0-1.476.826L15.168 20.333H27Zm25.342-3.13-8.302 4.981 8.157 13.255c.227.372.802.21.802-.228V17.574a.433.433 0 0 0-.657-.372ZM42.223 19.23l8.834-5.276a.432.432 0 0 0 .012-.734L34.732 2.538c-.778-.445-1.637.442-1.168 1.207l8.66 15.485Zm8.562 27.106-22.05 2.416v7.114a.865.865 0 0 0 1.227.786l21.06-9.498c.437-.212.244-.873-.237-.818Zm-9.35-21.772L29.667 45.158l22.56-2.39a.868.868 0 0 0 .643-1.316L41.434 24.564ZM26.998 23.8H16.12L27 42.839l10.88-19.04H27Z"/>
  <mask id="a" width="45" height="43" x="5" y="7.158" fill="#000" maskUnits="userSpaceOnUse">
    <path fill="#fff" d="M5 7.158h45v43H5z"/>
    <path d="M9.964 17.88c-.183-1.343-.11-2.664.614-3.876.082.577.209 1.126.5 1.659.245-2.2 1.153-4.017 2.795-5.463-.102.477-.18.951-.095 1.41.623-.649 1.332-1.543 3.298-2.129a8.024 8.024 0 0 1 3.305-.254c3.088.425 5.047 2.205 6.028 5.112.598 1.767.41 3.519-.126 5.266a11.288 11.288 0 0 1-1.344 2.912c-.171-.133-.335-.267-.498-.393-3.674-2.857-2.298-1.762-3.224-2.634-.096-.085-.096-.164-.036-.281.543-1.123.701-2.301.436-3.524-.164-.76-.486-1.447-1.092-1.963-1.256-1.084-3.188-.865-4.185.47-.794 1.068-.888 2.256-.51 3.5.027.1.053.208.031.305-.158 1.1-.142 2.198.133 3.277a.67.67 0 0 1 .02.125c.003.023-.004.04-.007.087-1.794-.689-3.042-1.932-3.795-3.746-.51 1.459-.589 2.867-.09 4.288-1.341-1.067-1.938-2.518-2.158-4.149Zm37.747 5.941a9.53 9.53 0 0 0-3.35-1.766c-1.044-.306-2.099-.414-3.181-.241-.778.125-1.51.397-2.22.73-.19.09-.387.165-.586.233-.374.132-.596-.186-.422-.496.214-.385.233-.355 1.08-1.058.044-.036.088-.072.16-.135l-.195.02c-.047.005-.093.025-.147.039-1.485.41-2.282 1.456-3.596 2.703-.75.717-1.05.407-.943.056.082-.285.205-.55.32-.823.064-.15.154-.285.234-.427-.017-.014-.041-.02-.059-.034-1.97 1.646-3.322 3.689-3.94 6.195.026.021.06.042.086.063.018-.05.03-.098.057-.14.719-1.03 1.613-1.887 2.63-2.623 1.342-.973 2.793-1.729 4.438-2.045.334-.065.68-.076 1.025-.11a1.58 1.58 0 0 1-.406.127c-1.43.334-2.71.985-3.887 1.855-2.224 1.64-3.935 3.735-5.326 6.106-.02.034-.024.073-.044.107 1.177.3 2.016 1.166 3.029 1.72a.061.061 0 0 0 .028-.034l.073-.221c.743-2.203 1.701-4.31 3.069-6.203 1.16-1.604 2.776-2.281 4.736-2.06.473.056.928.255 1.401.397.17-.127.374-.29.59-.43.623-.404 1.307-.686 2.02-.916 1.126-.359 2.27-.617 3.474-.453l-.004-.04c-.042-.027-.1-.053-.144-.096ZM30.66 39.422c-3.346-2.273-1.94-1.347-3.625-2.45-.055.076-.001-.016-.125.25-.726 1.584-1.718 2.965-3.07 4.074-.753.614-1.59 1.094-2.577 1.193-1.691.17-3.066-.442-4.088-1.787-1.093-1.432-1.362-3.082-1.136-4.837.344-2.709 1.922-4.56 2.515-5.34-1.513-.338-2.57.393-3.523 1.454-.047-1.095.13-2.085.63-3.014a16.381 16.381 0 0 0-4.729 3.95c-.07-.453.078-3.465.086-3.545a.652.652 0 0 0-.293-.556C9.026 30.939 7.65 33.22 7 35.882c.533-.52 1.077-1.01 1.72-1.455-.474 1.812-1.118 4.29.187 7.979.51 1.451 1.223 2.787 2.3 3.905.256.267.548.49.825.732.014-.018.03-.027.043-.044-.164-.538-.283-1.087-.29-1.704.198.234.353.44.53.627 1.113 1.154 2.464 1.92 3.977 2.416 2.047.687 4.107.638 6.168.059 4.223-1.193 6.72-4.522 8.305-8.653.064-.149.024-.232-.104-.322Zm13.103-4.99c-.768-.168-1.771-.154-2.27-.001.807.235 1.156.406 1.567.791 1.1 1.029 1.088 2.636-.063 3.614-.852.727-1.867 1.019-2.974 1.02a1.245 1.245 0 0 1-.24-.024c.19-.312.415-.595.549-.91.604-1.39.09-3.339-1.124-4.324-.181-.148-.391-.27-.595-.407a.393.393 0 0 0 .03.219c.46 1.267-.378 2.6-1.691 2.686-.598.036-1.119-.188-1.602-.511-1.654-1.107-3.315-2.206-4.962-3.321-.5-.337-1.043-.536-1.643-.523-.363.005-.733.026-1.095.04-.466.015-.712-.15-.881-.576-.098-.26-.171-.521-.253-.782-.181-.622-.588-.969-1.232-.999-.35-.02-.705-.008-1.053-.012-1.03-.008-1.61-.424-1.93-1.412-.305.901.051 1.767.807 2.284.383.262.786.498 1.17.768.39.261.648.623.735 1.097.068.365.137.737.252 1.09.256.813.842 1.37 1.53 1.831 1.4.943 2.8 1.878 4.2 2.828 1.52 1.034 1.347 2.46 1.46 4.283.11 1.8 1.294 3.263 3.027 3.745.082.024.162.032.291.058-1.373-1.301-1.139-3.374-.358-4.101.041.17.065.333.121.494 1.084 3.38 4.062 4.67 7.105 3.785 1.23-.353 2.327-.938 3.204-1.889.142-.157.257-.35.41-.556-1.474.513-2.802.29-4.07-.428a.348.348 0 0 1 .147-.039c1.683-.027 3.153-.586 4.327-1.812 1.396-1.454 1.744-3.57.842-5.306-.81-1.508-2.104-2.343-3.738-2.7Zm-31.842-10.39c-.488-.679-1.157-1.118-1.899-1.494 1.069-.147 2.085-.194 3.13-.022-.644-.9-.86-1.868-.697-2.992.51.89 1.232 1.466 2.06 1.913 1.647.878 2.95 1.253 3.896 1.996.292.232.549.507.837.778-.079-.158-.142-.31-.22-.452-.475-.791-1.164-1.354-1.966-1.78a.6.6 0 0 1-.302-.325c-.357-.953-.433-1.942-.352-2.94.035-.438.134-.875.224-1.311a1.62 1.62 0 0 1 .261-.549c.102.536.201 1.997 1.898 3.448.935.8 1.927 1.538 2.913 2.293.772.595 1.565 1.164 2.208 1.898.099.116.198.24.335.338-.494-.979-1.302-1.775-2.162-2.456a118.187 118.187 0 0 0-2.503-1.915c-.282-.21-.413-.489-.485-.814-.176-.805-.163-1.613.098-2.399.031-.082.07-.165.123-.273.072.325.11.614.201.897.558 1.771 1.884 2.682 4.362 4.584.857.657 1.663 1.351 2.254 2.273.45.69.722 1.43.68 2.273-.003.047.053.129.102.148.506.154.838.461.872 1.043.583-.265.916-.725 1.17-1.265.488 1.549-.316 4.01-1.667 4.811-.004-.355.207-1.872-1.51-2.039-.543-.048-1.013 0-1.81.017.297-.742.652-1.696-.138-1.758-1.986-.164-4.12.565-4.49.816.645-.034 1.285-.05 1.867.073-.106.525-.213 1.026-.306 1.526-.097.524.28 1.126.805.678.086-.08.165-.167.237-.237-.102 1.426-.102 1.268-.075 1.455.104.796.805.536 1.287.448-.103.943-2.095 2.37-3.352 2.378.511-.423.913-.907 1.104-1.527-.503.114-.998.227-1.485.34l-.03-.069c.341-.303.565-.674.695-1.106.515-1.721-.582-2.948-2.272-2.927-.72.009-1.388.203-1.985.635.362-1.27 1.137-2.22 2.28-2.96-1.224-.216-.718-.14-1.976-.299 1.07-.843 2.261-1.271 3.527-1.51-.433-.21-3.796.098-5.333 2.19.63.048 1.236.098 1.85.147-1.809.736-3.29 1.89-4.606 3.28.049-.385.137-.765.146-1.146a3.754 3.754 0 0 0-.1-1.066c-.191-.724-.816-1.112-1.671-1.12-.626-.009-1.22.13-1.814.285-.07.015-.131.037-.227.023 1.12-1.284 2.648-1.984 3.894-3.043.434-.4.467-.695.117-1.19Zm10.266 1.085c.385 1.227 1.188 1.898 2.056 1.716-.45-.849-1.102-1.432-2.056-1.716Z"/>
  </mask>
  <path fill="#E51919" d="M9.964 17.88c-.183-1.343-.11-2.664.614-3.876.082.577.209 1.126.5 1.659.245-2.2 1.153-4.017 2.795-5.463-.102.477-.18.951-.095 1.41.623-.649 1.332-1.543 3.298-2.129a8.024 8.024 0 0 1 3.305-.254c3.088.425 5.047 2.205 6.028 5.112.598 1.767.41 3.519-.126 5.266a11.288 11.288 0 0 1-1.344 2.912c-.171-.133-.335-.267-.498-.393-3.674-2.857-2.298-1.762-3.224-2.634-.096-.085-.096-.164-.036-.281.543-1.123.701-2.301.436-3.524-.164-.76-.486-1.447-1.092-1.963-1.256-1.084-3.188-.865-4.185.47-.794 1.068-.888 2.256-.51 3.5.027.1.053.208.031.305-.158 1.1-.142 2.198.133 3.277a.67.67 0 0 1 .02.125c.003.023-.004.04-.007.087-1.794-.689-3.042-1.932-3.795-3.746-.51 1.459-.589 2.867-.09 4.288-1.341-1.067-1.938-2.518-2.158-4.149Zm37.747 5.941a9.53 9.53 0 0 0-3.35-1.766c-1.044-.306-2.099-.414-3.181-.241-.778.125-1.51.397-2.22.73-.19.09-.387.165-.586.233-.374.132-.596-.186-.422-.496.214-.385.233-.355 1.08-1.058.044-.036.088-.072.16-.135l-.195.02c-.047.005-.093.025-.147.039-1.485.41-2.282 1.456-3.596 2.703-.75.717-1.05.407-.943.056.082-.285.205-.55.32-.823.064-.15.154-.285.234-.427-.017-.014-.041-.02-.059-.034-1.97 1.646-3.322 3.689-3.94 6.195.026.021.06.042.086.063.018-.05.03-.098.057-.14.719-1.03 1.613-1.887 2.63-2.623 1.342-.973 2.793-1.729 4.438-2.045.334-.065.68-.076 1.025-.11a1.58 1.58 0 0 1-.406.127c-1.43.334-2.71.985-3.887 1.855-2.224 1.64-3.935 3.735-5.326 6.106-.02.034-.024.073-.044.107 1.177.3 2.016 1.166 3.029 1.72a.061.061 0 0 0 .028-.034l.073-.221c.743-2.203 1.701-4.31 3.069-6.203 1.16-1.604 2.776-2.281 4.736-2.06.473.056.928.255 1.401.397.17-.127.374-.29.59-.43.623-.404 1.307-.686 2.02-.916 1.126-.359 2.27-.617 3.474-.453l-.004-.04c-.042-.027-.1-.053-.144-.096ZM30.66 39.422c-3.346-2.273-1.94-1.347-3.625-2.45-.055.076-.001-.016-.125.25-.726 1.584-1.718 2.965-3.07 4.074-.753.614-1.59 1.094-2.577 1.193-1.691.17-3.066-.442-4.088-1.787-1.093-1.432-1.362-3.082-1.136-4.837.344-2.709 1.922-4.56 2.515-5.34-1.513-.338-2.57.393-3.523 1.454-.047-1.095.13-2.085.63-3.014a16.381 16.381 0 0 0-4.729 3.95c-.07-.453.078-3.465.086-3.545a.652.652 0 0 0-.293-.556C9.026 30.939 7.65 33.22 7 35.882c.533-.52 1.077-1.01 1.72-1.455-.474 1.812-1.118 4.29.187 7.979.51 1.451 1.223 2.787 2.3 3.905.256.267.548.49.825.732.014-.018.03-.027.043-.044-.164-.538-.283-1.087-.29-1.704.198.234.353.44.53.627 1.113 1.154 2.464 1.92 3.977 2.416 2.047.687 4.107.638 6.168.059 4.223-1.193 6.72-4.522 8.305-8.653.064-.149.024-.232-.104-.322Zm13.103-4.99c-.768-.168-1.771-.154-2.27-.001.807.235 1.156.406 1.567.791 1.1 1.029 1.088 2.636-.063 3.614-.852.727-1.867 1.019-2.974 1.02a1.245 1.245 0 0 1-.24-.024c.19-.312.415-.595.549-.91.604-1.39.09-3.339-1.124-4.324-.181-.148-.391-.27-.595-.407a.393.393 0 0 0 .03.219c.46 1.267-.378 2.6-1.691 2.686-.598.036-1.119-.188-1.602-.511-1.654-1.107-3.315-2.206-4.962-3.321-.5-.337-1.043-.536-1.643-.523-.363.005-.733.026-1.095.04-.466.015-.712-.15-.881-.576-.098-.26-.171-.521-.253-.782-.181-.622-.588-.969-1.232-.999-.35-.02-.705-.008-1.053-.012-1.03-.008-1.61-.424-1.93-1.412-.305.901.051 1.767.807 2.284.383.262.786.498 1.17.768.39.261.648.623.735 1.097.068.365.137.737.252 1.09.256.813.842 1.37 1.53 1.831 1.4.943 2.8 1.878 4.2 2.828 1.52 1.034 1.347 2.46 1.46 4.283.11 1.8 1.294 3.263 3.027 3.745.082.024.162.032.291.058-1.373-1.301-1.139-3.374-.358-4.101.041.17.065.333.121.494 1.084 3.38 4.062 4.67 7.105 3.785 1.23-.353 2.327-.938 3.204-1.889.142-.157.257-.35.41-.556-1.474.513-2.802.29-4.07-.428a.348.348 0 0 1 .147-.039c1.683-.027 3.153-.586 4.327-1.812 1.396-1.454 1.744-3.57.842-5.306-.81-1.508-2.104-2.343-3.738-2.7Zm-31.842-10.39c-.488-.679-1.157-1.118-1.899-1.494 1.069-.147 2.085-.194 3.13-.022-.644-.9-.86-1.868-.697-2.992.51.89 1.232 1.466 2.06 1.913 1.647.878 2.95 1.253 3.896 1.996.292.232.549.507.837.778-.079-.158-.142-.31-.22-.452-.475-.791-1.164-1.354-1.966-1.78a.6.6 0 0 1-.302-.325c-.357-.953-.433-1.942-.352-2.94.035-.438.134-.875.224-1.311a1.62 1.62 0 0 1 .261-.549c.102.536.201 1.997 1.898 3.448.935.8 1.927 1.538 2.913 2.293.772.595 1.565 1.164 2.208 1.898.099.116.198.24.335.338-.494-.979-1.302-1.775-2.162-2.456a118.187 118.187 0 0 0-2.503-1.915c-.282-.21-.413-.489-.485-.814-.176-.805-.163-1.613.098-2.399.031-.082.07-.165.123-.273.072.325.11.614.201.897.558 1.771 1.884 2.682 4.362 4.584.857.657 1.663 1.351 2.254 2.273.45.69.722 1.43.68 2.273-.003.047.053.129.102.148.506.154.838.461.872 1.043.583-.265.916-.725 1.17-1.265.488 1.549-.316 4.01-1.667 4.811-.004-.355.207-1.872-1.51-2.039-.543-.048-1.013 0-1.81.017.297-.742.652-1.696-.138-1.758-1.986-.164-4.12.565-4.49.816.645-.034 1.285-.05 1.867.073-.106.525-.213 1.026-.306 1.526-.097.524.28 1.126.805.678.086-.08.165-.167.237-.237-.102 1.426-.102 1.268-.075 1.455.104.796.805.536 1.287.448-.103.943-2.095 2.37-3.352 2.378.511-.423.913-.907 1.104-1.527-.503.114-.998.227-1.485.34l-.03-.069c.341-.303.565-.674.695-1.106.515-1.721-.582-2.948-2.272-2.927-.72.009-1.388.203-1.985.635.362-1.27 1.137-2.22 2.28-2.96-1.224-.216-.718-.14-1.976-.299 1.07-.843 2.261-1.271 3.527-1.51-.433-.21-3.796.098-5.333 2.19.63.048 1.236.098 1.85.147-1.809.736-3.29 1.89-4.606 3.28.049-.385.137-.765.146-1.146a3.754 3.754 0 0 0-.1-1.066c-.191-.724-.816-1.112-1.671-1.12-.626-.009-1.22.13-1.814.285-.07.015-.131.037-.227.023 1.12-1.284 2.648-1.984 3.894-3.043.434-.4.467-.695.117-1.19Zm10.266 1.085c.385 1.227 1.188 1.898 2.056 1.716-.45-.849-1.102-1.432-2.056-1.716Z"/>
  <path stroke="#191919" stroke-width="2" d="M9.964 17.88c-.183-1.343-.11-2.664.614-3.876.082.577.209 1.126.5 1.659.245-2.2 1.153-4.017 2.795-5.463-.102.477-.18.951-.095 1.41.623-.649 1.332-1.543 3.298-2.129a8.024 8.024 0 0 1 3.305-.254c3.088.425 5.047 2.205 6.028 5.112.598 1.767.41 3.519-.126 5.266a11.288 11.288 0 0 1-1.344 2.912c-.171-.133-.335-.267-.498-.393-3.674-2.857-2.298-1.762-3.224-2.634-.096-.085-.096-.164-.036-.281.543-1.123.701-2.301.436-3.524-.164-.76-.486-1.447-1.092-1.963-1.256-1.084-3.188-.865-4.185.47-.794 1.068-.888 2.256-.51 3.5.027.1.053.208.031.305-.158 1.1-.142 2.198.133 3.277a.67.67 0 0 1 .02.125c.003.023-.004.04-.007.087-1.794-.689-3.042-1.932-3.795-3.746-.51 1.459-.589 2.867-.09 4.288-1.341-1.067-1.938-2.518-2.158-4.149Zm37.747 5.941a9.53 9.53 0 0 0-3.35-1.766c-1.044-.306-2.099-.414-3.181-.241-.778.125-1.51.397-2.22.73-.19.09-.387.165-.586.233-.374.132-.596-.186-.422-.496.214-.385.233-.355 1.08-1.058.044-.036.088-.072.16-.135l-.195.02c-.047.005-.093.025-.147.039-1.485.41-2.282 1.456-3.596 2.703-.75.717-1.05.407-.943.056.082-.285.205-.55.32-.823.064-.15.154-.285.234-.427-.017-.014-.041-.02-.059-.034-1.97 1.646-3.322 3.689-3.94 6.195.026.021.06.042.086.063.018-.05.03-.098.057-.14.719-1.03 1.613-1.887 2.63-2.623 1.342-.973 2.793-1.729 4.438-2.045.334-.065.68-.076 1.025-.11a1.58 1.58 0 0 1-.406.127c-1.43.334-2.71.985-3.887 1.855-2.224 1.64-3.935 3.735-5.326 6.106-.02.034-.024.073-.044.107 1.177.3 2.016 1.166 3.029 1.72a.061.061 0 0 0 .028-.034l.073-.221c.743-2.203 1.701-4.31 3.069-6.203 1.16-1.604 2.776-2.281 4.736-2.06.473.056.928.255 1.401.397.17-.127.374-.29.59-.43.623-.404 1.307-.686 2.02-.916 1.126-.359 2.27-.617 3.474-.453l-.004-.04c-.042-.027-.1-.053-.144-.096ZM30.66 39.422c-3.346-2.273-1.94-1.347-3.625-2.45-.055.076-.001-.016-.125.25-.726 1.584-1.718 2.965-3.07 4.074-.753.614-1.59 1.094-2.577 1.193-1.691.17-3.066-.442-4.088-1.787-1.093-1.432-1.362-3.082-1.136-4.837.344-2.709 1.922-4.56 2.515-5.34-1.513-.338-2.57.393-3.523 1.454-.047-1.095.13-2.085.63-3.014a16.381 16.381 0 0 0-4.729 3.95c-.07-.453.078-3.465.086-3.545a.652.652 0 0 0-.293-.556C9.026 30.939 7.65 33.22 7 35.882c.533-.52 1.077-1.01 1.72-1.455-.474 1.812-1.118 4.29.187 7.979.51 1.451 1.223 2.787 2.3 3.905.256.267.548.49.825.732.014-.018.03-.027.043-.044-.164-.538-.283-1.087-.29-1.704.198.234.353.44.53.627 1.113 1.154 2.464 1.92 3.977 2.416 2.047.687 4.107.638 6.168.059 4.223-1.193 6.72-4.522 8.305-8.653.064-.149.024-.232-.104-.322Zm13.103-4.99c-.768-.168-1.771-.154-2.27-.001.807.235 1.156.406 1.567.791 1.1 1.029 1.088 2.636-.063 3.614-.852.727-1.867 1.019-2.974 1.02a1.245 1.245 0 0 1-.24-.024c.19-.312.415-.595.549-.91.604-1.39.09-3.339-1.124-4.324-.181-.148-.391-.27-.595-.407a.393.393 0 0 0 .03.219c.46 1.267-.378 2.6-1.691 2.686-.598.036-1.119-.188-1.602-.511-1.654-1.107-3.315-2.206-4.962-3.321-.5-.337-1.043-.536-1.643-.523-.363.005-.733.026-1.095.04-.466.015-.712-.15-.881-.576-.098-.26-.171-.521-.253-.782-.181-.622-.588-.969-1.232-.999-.35-.02-.705-.008-1.053-.012-1.03-.008-1.61-.424-1.93-1.412-.305.901.051 1.767.807 2.284.383.262.786.498 1.17.768.39.261.648.623.735 1.097.068.365.137.737.252 1.09.256.813.842 1.37 1.53 1.831 1.4.943 2.8 1.878 4.2 2.828 1.52 1.034 1.347 2.46 1.46 4.283.11 1.8 1.294 3.263 3.027 3.745.082.024.162.032.291.058-1.373-1.301-1.139-3.374-.358-4.101.041.17.065.333.121.494 1.084 3.38 4.062 4.67 7.105 3.785 1.23-.353 2.327-.938 3.204-1.889.142-.157.257-.35.41-.556-1.474.513-2.802.29-4.07-.428a.348.348 0 0 1 .147-.039c1.683-.027 3.153-.586 4.327-1.812 1.396-1.454 1.744-3.57.842-5.306-.81-1.508-2.104-2.343-3.738-2.7Zm-31.842-10.39c-.488-.679-1.157-1.118-1.899-1.494 1.069-.147 2.085-.194 3.13-.022-.644-.9-.86-1.868-.697-2.992.51.89 1.232 1.466 2.06 1.913 1.647.878 2.95 1.253 3.896 1.996.292.232.549.507.837.778-.079-.158-.142-.31-.22-.452-.475-.791-1.164-1.354-1.966-1.78a.6.6 0 0 1-.302-.325c-.357-.953-.433-1.942-.352-2.94.035-.438.134-.875.224-1.311a1.62 1.62 0 0 1 .261-.549c.102.536.201 1.997 1.898 3.448.935.8 1.927 1.538 2.913 2.293.772.595 1.565 1.164 2.208 1.898.099.116.198.24.335.338-.494-.979-1.302-1.775-2.162-2.456a118.187 118.187 0 0 0-2.503-1.915c-.282-.21-.413-.489-.485-.814-.176-.805-.163-1.613.098-2.399.031-.082.07-.165.123-.273.072.325.11.614.201.897.558 1.771 1.884 2.682 4.362 4.584.857.657 1.663 1.351 2.254 2.273.45.69.722 1.43.68 2.273-.003.047.053.129.102.148.506.154.838.461.872 1.043.583-.265.916-.725 1.17-1.265.488 1.549-.316 4.01-1.667 4.811-.004-.355.207-1.872-1.51-2.039-.543-.048-1.013 0-1.81.017.297-.742.652-1.696-.138-1.758-1.986-.164-4.12.565-4.49.816.645-.034 1.285-.05 1.867.073-.106.525-.213 1.026-.306 1.526-.097.524.28 1.126.805.678.086-.08.165-.167.237-.237-.102 1.426-.102 1.268-.075 1.455.104.796.805.536 1.287.448-.103.943-2.095 2.37-3.352 2.378.511-.423.913-.907 1.104-1.527-.503.114-.998.227-1.485.34l-.03-.069c.341-.303.565-.674.695-1.106.515-1.721-.582-2.948-2.272-2.927-.72.009-1.388.203-1.985.635.362-1.27 1.137-2.22 2.28-2.96-1.224-.216-.718-.14-1.976-.299 1.07-.843 2.261-1.271 3.527-1.51-.433-.21-3.796.098-5.333 2.19.63.048 1.236.098 1.85.147-1.809.736-3.29 1.89-4.606 3.28.049-.385.137-.765.146-1.146a3.754 3.754 0 0 0-.1-1.066c-.191-.724-.816-1.112-1.671-1.12-.626-.009-1.22.13-1.814.285-.07.015-.131.037-.227.023 1.12-1.284 2.648-1.984 3.894-3.043.434-.4.467-.695.117-1.19Zm10.266 1.085c.385 1.227 1.188 1.898 2.056 1.716-.45-.849-1.102-1.432-2.056-1.716Z" mask="url(#a)"/>
</svg>
